<svg width="12" height="9" viewBox="0 0 12 9" fill="none" xmlns="http://www.w3.org/2000/svg">
<path d="M1 4.13721C0.723858 4.13721 0.5 4.36106 0.5 4.63721C0.5 4.91335 0.723858 5.13721 1 5.13721V4.13721ZM11.3536 4.99076C11.5488 4.7955 11.5488 4.47892 11.3536 4.28365L8.17157 1.10167C7.97631 0.906411 7.65973 0.906411 7.46447 1.10167C7.2692 1.29694 7.2692 1.61352 7.46447 1.80878L10.2929 4.63721L7.46447 7.46563C7.2692 7.6609 7.2692 7.97748 7.46447 8.17274C7.65973 8.368 7.97631 8.368 8.17157 8.17274L11.3536 4.99076ZM1 5.13721H11V4.13721H1V5.13721Z" fill="#E90002"/>
</svg>
