<svg width="24" height="24" viewBox="0 0 24 24" fill="none" xmlns="http://www.w3.org/2000/svg">
<path d="M12.1016 20.2973C12.0004 20.2973 11.8992 20.2712 11.8086 20.2188C11.7102 20.162 9.37148 18.8042 6.99922 16.7582C5.59321 15.5455 4.47087 14.3428 3.66346 13.1834C2.61861 11.6832 2.09319 10.2402 2.10166 8.89435C2.11159 7.32834 2.67248 5.85562 3.68115 4.74742C4.70685 3.62054 6.07567 3 7.53555 3C9.40652 3 11.1171 4.04804 12.1016 5.70827C13.0861 4.04808 14.7967 3 16.6676 3C18.0468 3 19.3627 3.55992 20.373 4.57664C21.4818 5.69237 22.1118 7.26885 22.1014 8.90178C22.0929 10.2452 21.5577 11.6861 20.5105 13.1843C19.7006 14.343 18.5798 15.5452 17.1793 16.7575C14.8157 18.8033 12.4938 20.1612 12.3961 20.2179C12.3051 20.2708 12.2033 20.2973 12.1016 20.2973Z" stroke="#E90002"/>
</svg>
