<svg width="17" height="20" viewBox="0 0 17 20" fill="none" xmlns="http://www.w3.org/2000/svg">
<g id="walk 1" clip-path="url(#clip0_11720_102751)">
<path id="Vector" d="M2.84833 7.26L5.51918 5.32C5.81901 5.10058 6.18368 4.98792 6.55501 5C7.00793 5.01129 7.44609 5.16343 7.80851 5.43523C8.17101 5.70705 8.43976 6.08504 8.57751 6.51667C8.73251 7.0025 8.87418 7.33083 9.00251 7.50167C9.39026 8.019 9.89326 8.43883 10.4716 8.72783C11.0499 9.01692 11.6877 9.16708 12.3342 9.16667V10.8333C11.4736 10.8342 10.6235 10.6444 9.84509 10.2774C9.06668 9.91042 8.37934 9.37533 7.83251 8.71083L7.25168 12.0067L8.96918 13.4483L10.8217 18.5383L9.25501 19.1083L7.55501 14.4383L4.73 12.0675C4.49817 11.8803 4.32077 11.6343 4.21627 11.3553C4.11177 11.0763 4.08399 10.7742 4.13583 10.4808L4.56 8.07667L3.99583 8.48667L2.22333 10.9267L0.875 9.94667L2.83417 7.25L2.84833 7.26ZM7.75084 4.58333C7.30884 4.58333 6.88493 4.40774 6.57234 4.09517C6.25976 3.78262 6.08418 3.35869 6.08418 2.91667C6.08418 2.47464 6.25976 2.05072 6.57234 1.73816C6.88493 1.42559 7.30884 1.25 7.75084 1.25C8.19284 1.25 8.61676 1.42559 8.92934 1.73816C9.24193 2.05072 9.41751 2.47464 9.41751 2.91667C9.41751 3.35869 9.24193 3.78262 8.92934 4.09517C8.61676 4.40774 8.19284 4.58333 7.75084 4.58333ZM5.27418 15.5675L2.59583 18.7592L1.31917 17.6883L3.79917 14.7333L4.42083 12.9167L5.91334 14.1667L5.27418 15.5675Z" fill="#C4C4C4"/>
</g>
<defs>
<clipPath id="clip0_11720_102751">
<rect width="16" height="20" fill="white" transform="translate(0.5)"/>
</clipPath>
</defs>
</svg>
