<svg width="64" height="64" viewBox="0 0 64 64" fill="none" xmlns="http://www.w3.org/2000/svg">
<circle cx="32" cy="32" r="30.5" stroke="#E90002" stroke-width="3"/>
<path d="M31.9974 18C31.6399 18.0151 31.2267 18.1736 30.9661 18.4375L22.4657 27.0529C21.9785 27.6367 21.7774 28.7562 22.3407 29.4087C22.8954 30.0514 23.9713 30.0323 24.5283 29.392L30.4973 23.3343L30.4973 44.3846C30.4973 45.2767 31.1689 46 31.9974 46C32.8258 46 33.4974 45.2767 33.4974 44.3846L33.4974 23.3343L39.4665 29.392C39.9792 29.9432 41.093 30.0451 41.6541 29.4087C42.2151 28.7724 42.0359 27.6127 41.529 27.0529L33.0287 18.4375C32.7378 18.1427 32.3965 17.999 31.9974 18Z" fill="#E90002"/>
</svg>
