<svg width="13" height="12" viewBox="0 0 13 12" fill="none" xmlns="http://www.w3.org/2000/svg">
<path fill-rule="evenodd" clip-rule="evenodd" d="M0 1.5C0 1.22386 0.223858 1 0.5 1H12.5C12.7761 1 13 1.22386 13 1.5C13 1.77614 12.7761 2 12.5 2H0.5C0.223858 2 0 1.77614 0 1.5Z" fill="#E90002"/>
<path fill-rule="evenodd" clip-rule="evenodd" d="M0 6.5C0 6.22386 0.223858 6 0.5 6H12.5C12.7761 6 13 6.22386 13 6.5C13 6.77614 12.7761 7 12.5 7H0.5C0.223858 7 0 6.77614 0 6.5Z" fill="#E90002"/>
<path fill-rule="evenodd" clip-rule="evenodd" d="M0 11.5C0 11.2239 0.223858 11 0.5 11H12.5C12.7761 11 13 11.2239 13 11.5C13 11.7761 12.7761 12 12.5 12H0.5C0.223858 12 0 11.7761 0 11.5Z" fill="#E90002"/>
</svg>
